PathFileType  4	(X/Y/Z) /Users/kristensteudel/Documents/NMBL_Research/BertecForceProcessing/anc_files/
DataRate	CameraRate	NumFrames	NumMarkers	Units	OrigDataRate	OrigDataStartFrame	OrigNumFrames
  200.0		  200.0		    6		     46		 mm	  200.0	      453	    724
Frame#	Time	r_knee			r_shank_antsup			r_ankle			r_calc			r_5meta			r_toe			L_knee			L_shank_antsup			L_ankle			L_calc			L_5meta			L_toe			r_sh2			r_sh3			r_sh4			L_sh2			L_sh3			r_thigh1			r_thigh2			r_thigh3			r_thigh4			r_thigh5			L_thigh1			L_thigh2			L_thigh3			L_thigh4			r.ASIS			r.PSIS			L.ASIS			L.PSIS			C7			R_Shoulder			L_Shoulder			Sternum			R_humerus			R_elbow_med			R_elbow_lat			R_forearm			R_wrist_radius			R_wrist_ulna			L_humerus			L_elbow_med			L_elbow_lat			L_forearm			L_wrist_radius			L_wrist_ulna			
		X1	Y1	Z1	X2	Y2	Z2	X3	Y3	Z3	X4	Y4	Z4	X5	Y5	Z5	X6	Y6	Z6	X7	Y7	Z7	X8	Y8	Z8	X9	Y9	Z9	X10	Y10	Z10	X11	Y11	Z11	X12	Y12	Z12	X13	Y13	Z13	X14	Y14	Z14	X15	Y15	Z15	X16	Y16	Z16	X17	Y17	Z17	X18	Y18	Z18	X19	Y19	Z19	X20	Y20	Z20	X21	Y21	Z21	X22	Y22	Z22	X23	Y23	Z23	X24	Y24	Z24	X25	Y25	Z25	X26	Y26	Z26	X27	Y27	Z27	X28	Y28	Z28	X29	Y29	Z29	X30	Y30	Z30	X31	Y31	Z31	X32	Y32	Z32	X33	Y33	Z33	X34	Y34	Z34	X35	Y35	Z35	X36	Y36	Z36	X37	Y37	Z37	X38	Y38	Z38	X39	Y39	Z39	X40	Y40	Z40	X41	Y41	Z41	X42	Y42	Z42	X43	Y43	Z43	X44	Y44	Z44	X45	Y45	Z45	X46	Y46	Z46	

453	2.26000	1071.884	674.404	-163.328	1052.953	558.300	-166.791	835.027	309.685	-216.543	758.453	320.608	-288.866	888.084	186.418	-178.999	944.641	187.243	-234.026	528.984	544.033	-453.384	465.845	440.637	-460.422	233.815	221.773	-419.284	186.669	254.692	-361.572	257.980	58.643	-423.747	300.598	56.134	-358.424	983.918	461.396	-180.805	991.525	597.347	-152.155	919.008	510.059	-174.129	402.514	505.330	-461.581	327.338	410.833	-440.637	983.078	890.740	-140.184	1063.725	812.028	-163.421	1060.926	758.194	-143.468	916.112	807.097	-104.500	999.732	730.783	-139.050	724.532	695.258	-463.421	646.668	582.214	-433.139	627.372	753.504	-499.267	555.947	639.446	-462.742	847.434	1010.119	-164.759	645.646	1067.270	-245.975	844.251	990.023	-432.830	640.832	1059.855	-363.681	766.827	1542.585	-344.299	752.783	1534.492	-150.746	862.693	1502.193	-506.702	915.758	1443.286	-289.746	603.198	1392.405	-74.874	465.411	1336.574	-154.618	465.782	1375.737	-72.607	570.365	1233.389	-41.824	630.271	1135.286	-37.315	582.916	1119.793	-20.874	816.541	1268.890	-601.905	696.634	1162.048	-581.223	745.976	1204.192	-655.371	887.641	1176.791	-573.109	954.328	1201.302	-477.675	965.618	1140.682	-515.545
454	2.26500	1071.199	675.943	-163.054	1058.717	558.403	-165.844	857.158	296.966	-218.654	780.634	303.394	-291.461	917.484	177.048	-181.550	974.422	181.991	-235.651	519.781	554.128	-451.955	455.807	451.620	-460.383	224.051	232.833	-422.032	180.478	269.143	-365.090	237.748	66.967	-424.274	281.508	60.605	-359.783	995.838	457.674	-180.818	995.093	593.403	-151.419	927.881	502.583	-175.011	393.062	516.015	-458.974	316.826	421.573	-440.788	984.079	892.948	-138.953	1064.448	813.913	-161.300	1060.695	759.766	-142.661	915.977	809.580	-104.787	999.332	732.903	-139.611	719.654	699.254	-462.395	638.884	588.676	-432.060	623.707	760.302	-499.777	549.857	648.591	-461.256	849.016	1013.010	-165.291	647.271	1070.618	-247.479	846.809	993.370	-432.976	643.316	1063.396	-364.372	767.132	1545.411	-342.838	751.441	1537.411	-151.219	863.365	1506.676	-505.567	915.486	1447.528	-288.283	600.892	1398.083	-75.232	463.564	1342.554	-158.805	463.066	1381.470	-76.562	567.113	1239.491	-44.178	626.965	1141.245	-38.964	579.392	1125.764	-23.028	819.120	1273.223	-600.563	698.399	1165.955	-580.825	748.179	1208.418	-654.897	889.322	1183.429	-571.164	955.215	1208.926	-475.430	967.363	1148.378	-512.827
455	2.27000	1070.971	676.923	-162.444	1064.089	557.610	-164.993	879.783	284.358	-220.676	802.989	286.906	-294.177	947.091	168.454	-183.822	1003.807	177.262	-237.885	511.366	564.684	-451.202	447.759	461.315	-459.535	214.401	244.848	-424.522	172.422	284.398	-367.759	218.186	76.958	-424.805	262.456	65.288	-361.610	1007.520	453.492	-180.809	998.301	588.796	-150.882	937.132	493.912	-175.916	385.318	526.477	-457.663	308.185	432.319	-441.859	985.039	894.512	-137.586	1064.647	814.732	-159.450	1059.950	760.225	-142.148	915.280	811.434	-105.165	998.331	734.089	-140.078	715.513	703.482	-461.792	632.484	594.547	-432.157	621.794	766.754	-498.906	544.560	657.597	-459.232	850.428	1015.597	-165.859	648.659	1073.921	-248.744	849.018	996.258	-433.224	645.582	1066.777	-365.089	766.971	1548.189	-342.659	750.627	1540.138	-151.688	863.773	1509.942	-503.424	915.312	1451.431	-286.961	598.962	1402.937	-76.810	462.598	1347.906	-162.432	460.819	1386.849	-80.389	563.882	1245.241	-46.492	624.164	1146.837	-40.800	576.227	1131.421	-25.185	821.612	1277.269	-599.281	700.030	1169.614	-580.648	750.213	1212.466	-654.532	890.726	1189.686	-569.388	955.701	1215.975	-473.518	968.776	1155.585	-510.263
456	2.27500	1070.988	677.342	-161.380	1068.865	556.198	-164.211	902.054	272.768	-222.562	825.473	270.791	-296.172	976.486	160.577	-186.054	1033.143	173.343	-240.625	505.773	572.923	-450.013	441.493	469.851	-457.994	205.475	257.852	-426.380	165.776	299.921	-370.724	199.198	88.281	-425.564	243.241	71.997	-362.932	1018.750	449.137	-180.740	1001.382	583.358	-150.399	946.190	485.116	-176.522	380.297	535.797	-456.911	301.140	443.258	-443.475	985.549	895.321	-136.652	1064.992	815.299	-157.988	1058.703	760.097	-141.479	914.325	812.792	-105.629	996.859	734.669	-140.330	712.352	707.205	-461.232	627.137	600.461	-431.254	619.564	773.258	-498.021	540.677	665.794	-457.790	851.625	1017.905	-166.440	649.915	1076.978	-250.052	850.925	998.909	-433.536	647.586	1069.959	-365.795	767.125	1550.717	-342.190	749.914	1542.674	-151.883	864.355	1513.496	-501.857	915.236	1454.997	-285.667	597.147	1407.218	-78.480	461.812	1352.817	-166.258	458.777	1391.608	-84.298	561.203	1250.349	-48.644	621.477	1151.794	-42.560	573.573	1136.389	-27.228	823.869	1281.019	-598.095	701.855	1172.863	-580.210	751.469	1216.637	-654.839	891.903	1195.561	-567.744	956.207	1222.605	-471.706	969.822	1162.315	-507.853
457	2.28000	1070.997	677.151	-160.392	1073.303	554.184	-163.399	924.131	261.036	-223.944	849.033	254.527	-295.977	1005.615	153.263	-188.290	1061.340	170.233	-242.461	502.225	579.534	-448.946	437.246	477.495	-455.888	196.893	271.244	-427.864	159.061	315.708	-373.321	181.009	100.431	-425.946	224.331	82.300	-364.081	1029.565	444.434	-180.211	1004.378	577.245	-149.929	955.063	476.315	-177.082	376.614	544.725	-456.831	295.657	453.729	-444.586	985.975	895.457	-135.997	1064.460	814.676	-156.825	1057.268	759.234	-141.097	913.259	813.671	-106.252	995.271	734.600	-140.432	710.060	710.563	-460.739	622.612	606.198	-430.390	618.615	779.070	-496.979	537.915	673.328	-455.908	852.564	1019.957	-167.010	650.809	1079.687	-251.460	852.583	1001.074	-433.797	649.326	1072.664	-366.514	767.075	1552.747	-341.650	749.443	1544.885	-151.801	864.994	1516.768	-500.204	915.242	1458.158	-284.451	595.475	1411.061	-80.075	461.335	1357.402	-169.764	456.913	1395.938	-87.999	558.810	1254.906	-50.530	619.309	1156.280	-44.196	571.888	1138.993	-28.766	825.964	1284.610	-597.049	703.008	1176.527	-580.163	752.968	1220.162	-654.761	892.782	1200.995	-566.288	956.104	1228.865	-470.252	970.768	1168.533	-505.697
458	2.28500	1070.290	675.890	-159.551	1077.178	551.475	-162.555	946.341	249.792	-224.853	871.742	239.290	-297.016	1034.461	146.858	-190.347	1088.875	167.990	-244.042	500.137	584.532	-448.680	433.719	483.847	-453.893	187.710	284.902	-428.746	151.079	331.678	-375.673	164.100	113.112	-424.192	207.833	95.070	-362.614	1039.916	439.519	-179.904	1006.957	570.498	-149.284	963.645	467.190	-177.653	374.798	552.314	-457.328	291.302	463.508	-445.414	986.373	894.914	-135.407	1062.939	813.032	-155.732	1055.849	757.920	-140.710	912.200	813.904	-106.925	993.537	733.853	-140.549	708.832	713.643	-460.194	619.650	610.876	-429.599	618.680	783.924	-496.012	536.103	679.554	-454.589	853.229	1021.759	-167.524	651.701	1082.281	-252.751	853.974	1002.856	-434.161	650.874	1075.242	-367.391	767.264	1554.769	-340.951	749.095	1546.781	-151.428	865.086	1519.625	-499.370	915.266	1461.059	-283.137	594.252	1414.139	-81.578	461.051	1361.215	-173.087	455.609	1399.696	-91.565	556.900	1258.737	-52.034	617.739	1160.291	-45.346	570.083	1142.829	-30.566	827.605	1287.746	-596.161	702.969	1180.558	-580.036	754.314	1223.571	-654.635	893.432	1205.786	-564.972	955.835	1234.009	-468.182	971.314	1174.058	-503.742
